<svg xmlns="http://www.w3.org/2000/svg" viewBox="0 0 396.46 169.75" fill="#7f7f7f">
  <path d="m74.36,0v10.23c-12.77.29-23.49,5-31.91,14.38-7.66,8.54-11.36,18.77-10.77,30.24,1.05,20.53,17.04,39.78,42.65,40.66,0,1.61,0,3.23,0,4.86s0,3.27,0,5.07c-1.56,0-3.09.17-4.56-.04-3.1-.44-6.22-.9-9.26-1.67-6.34-1.61-12.18-4.38-17.39-8.35-2.23-1.69-4.41-3.49-6.4-5.45-3.41-3.36-6.19-7.22-8.57-11.39-3.03-5.31-4.9-11.02-6-16.99-.35-1.89-.43-3.85-.51-5.78-.08-1.96-.06-3.94-.01-5.9.12-5.2,1.24-10.2,2.99-15.07,1.45-4.05,3.43-7.83,5.82-11.41,2.28-3.4,4.91-6.52,7.92-9.28,7.07-6.49,15.32-10.81,24.7-12.82,2.84-.61,5.78-.69,8.68-1.03.32-.04.63-.17.94-.26.56,0,1.12,0,1.68,0Z"/>
  <path d="m0,52.74h10.19c.35,17.69,6.48,32.86,18.93,45.29,12.42,12.41,27.6,18.43,45.15,18.83v9.9c-2.15,0-4.25.12-6.32-.03-2.19-.16-4.39-.44-6.53-.94-4.15-.96-8.34-1.87-12.37-3.24-3.48-1.18-6.89-2.73-10.08-4.55-3.8-2.18-7.45-4.67-10.95-7.31-2.65-1.99-5.11-4.29-7.42-6.67-4.15-4.28-7.73-9.02-10.67-14.23-2.75-4.87-5.16-9.9-6.63-15.3-1.05-3.88-1.79-7.86-2.52-11.82-.35-1.89-.36-3.85-.53-5.77-.01-.12-.16-.23-.25-.34,0-1.28,0-2.56,0-3.84Z"/>
  <path d="m162.88,63.6h19.24v104.91h-1.25c-4.48,0-8.95-.03-13.43.02-.95.01-1.52-.32-2.09-1.03-16.8-20.69-33.61-41.36-50.43-62.03-1.94-2.39-3.88-4.77-5.83-7.16-.16-.2-.35-.38-.73-.79v70.89h-19.28V63.56c.58,0,1.12,0,1.67,0,4.36,0,8.71.03,13.07-.02.9-.01,1.45.29,2,.97,18.69,23.01,37.4,46,56.1,69,.24.3.5.57.95,1.08V63.6Z"/>
  <path d="m307.07,168.45V63.65c.31-.03.57-.09.84-.09,14.75,0,29.5-.1,44.24.06,8.8.09,17.33,1.74,25.1,6.13,10.63,6,16.24,15.23,17.32,27.31.62,6.93-.21,13.64-3.16,19.99-3.62,7.8-9.68,13.06-17.46,16.47-.46.2-.93.41-1.53.68,8.02,11.41,15.98,22.74,24.02,34.18-.36.05-.61.11-.86.12-6.35,0-12.71-.01-19.06.03-.83,0-1.19-.41-1.59-.99-6.61-9.46-13.25-18.9-19.83-28.38-.65-.94-1.27-1.2-2.41-1.18-7.07.1-14.15.07-21.22.08-1.63,0-3.26,0-5.03,0v30.39h-19.36Zm19.38-46.44c.34.02.57.05.8.05,7.95,0,15.91.1,23.85-.07,2.93-.06,5.91-.49,8.75-1.22,7.49-1.93,12.9-6.27,14.65-14.14.53-2.38.72-4.92.59-7.36-.43-8.19-4.44-13.98-12.15-17.04-3.56-1.41-7.3-2.11-11.11-2.15-8.15-.09-16.3-.06-24.45-.07-.3,0-.6.07-.93.11v41.9Z"/>
  <path d="m246.14,169.75c-12.3-.15-22.05-2.98-30.3-10-7.7-6.55-12.01-14.98-13.39-24.94-1.11-8.04-.27-15.87,2.98-23.34,4.33-9.95,11.67-16.92,21.77-20.75,12.3-4.66,24.71-4.52,36.73.88,13.2,5.94,20.65,16.44,22.7,30.72,1.27,8.88.13,17.47-3.98,25.5-5.96,11.63-15.71,18.31-28.37,20.89-3.19.65-6.48.83-8.14,1.03Zm-25.3-41.21c0,5.19,1.1,9.78,3.3,13.69,4.87,8.64,13.83,12.32,23.09,11.35,7.86-.83,14.1-4.51,17.78-11.59,4.51-8.7,4.58-17.73.21-26.47-4-8-11.01-11.81-19.8-12.12-8.66-.3-15.76,2.92-20.6,10.35-2.92,4.48-4,9.51-3.98,14.81Z"/>
  <path d="m106.12,52.95h-31.74v31.72c-9.05.73-21.33-4.65-27.59-15.19-7.5-12.64-5.55-28.01,3.55-38.07,9.72-10.75,24.71-13.43,37.43-7.61,12.43,5.69,18.8,18.28,18.35,29.16Z"/>
</svg>